<svg width="141" height="20" viewBox="0 0 563 79" fill="none" xmlns="http://www.w3.org/2000/svg">
<mask id="mask0_18_3" style="mask-type:luminance" maskUnits="userSpaceOnUse" x="0" y="0" width="563" height="79">
<path d="M562.5 0H0V78.2337H562.5V0Z" fill="white"/>
</mask>
<g mask="url(#mask0_18_3)">
<path d="M39 78C60.5391 78 78 60.5391 78 39C78 17.4609 60.5391 0 39 0C17.4609 0 0 17.4609 0 39C0 60.5391 17.4609 78 39 78Z" fill="#F26724"/>
<path d="M35.7708 4.28197C36.3191 4.56048 36.8152 6.30116 37.0154 6.80596C42.4986 20.6357 27.0326 26.4844 21.0882 36.3018C17.3022 42.5509 16.867 50.1141 18.9123 57.0247C20.74 63.1693 25.3963 67.4339 31.3234 69.6359C31.3234 69.6359 19.478 53.8392 33.1337 41.0104C33.1337 41.0104 28.5296 55.8149 37.085 63.2215C37.085 63.2215 35.9362 53.6826 39.4262 51.4197C39.4262 51.4197 52.3856 62.7341 38.5646 74.7448C38.5646 74.7448 69.6358 70.689 57.4684 36.9633C57.4684 36.9633 55.8409 43.4821 50.0879 44.309C50.0879 44.309 65.7193 19.3911 35.7708 4.28197Z" fill="white"/>
<path d="M502.775 12H545.169V24.8342H510.08V29.5447H539.708C542.711 29.5447 545.169 32.0023 545.169 35.006V54.3939C545.169 57.3977 542.711 59.8553 539.708 59.8553H497.314V47.0211H532.403V42.3106H502.775C499.703 42.3106 497.314 39.853 497.314 36.8493V17.5296C497.314 14.4576 499.703 12 502.775 12Z" fill="white"/>
<path d="M445.506 12H493.362V24.8342H475.817V59.787H463.051V24.8342H445.506V12Z" fill="white"/>
<path d="M406.486 32.1388H428.809V24.8342H406.486V32.1388ZM393.72 59.787V12H436.114C439.118 12 441.575 14.4576 441.575 17.5296V32.2754C441.575 34.5282 440.278 36.5079 438.162 37.3271L435.226 38.4877L438.162 39.7165C440.278 40.5357 441.575 42.5154 441.575 44.7683V59.787H428.809V44.9048H406.486V59.787H393.72Z" fill="white"/>
<path d="M351.018 47.0211H373.342V24.8342H351.018V47.0211ZM338.252 17.5296C338.252 14.4576 340.642 12 343.714 12H380.646C383.65 12 386.108 14.4576 386.108 17.5296V54.3939C386.108 57.3977 383.65 59.8553 380.646 59.8553H343.714C340.642 59.8553 338.252 57.3977 338.252 54.3939V17.5296Z" fill="white"/>
<path d="M285 59.8553L285 12L297.834 12L297.834 29.5447L332.787 29.5447V42.3107H297.834V59.8553H285Z" fill="white"/>
<path d="M332.787 59.8553V12L319.953 12V29.5447L285 29.5447L285 42.3107H319.953V59.8553H332.787Z" fill="white"/>
<path d="M234.373 12H276.767V24.8342H241.678V29.5447H271.306C274.309 29.5447 276.767 32.0023 276.767 35.006V54.3939C276.767 57.3977 274.309 59.8553 271.306 59.8553H228.912V47.0211H264.001V42.3106H234.373C231.301 42.3106 228.912 39.853 228.912 36.8493V17.5296C228.912 14.4576 231.301 12 234.373 12Z" fill="white"/>
<path d="M160.487 32.1388H182.811V24.8342H160.487V32.1388ZM147.721 59.8553V12H190.115C193.119 12 195.577 14.4576 195.577 17.5296V39.4434C195.577 42.4472 193.119 44.9048 190.115 44.9048H160.487V59.8553H147.721Z" fill="white"/>
<path d="M114.779 47.0211L113.072 40.6722H125.838L127.272 46.0653V24.8342H104.949V47.0211H114.779ZM92.1826 17.5296C92.1826 14.4576 94.572 12 97.644 12H134.577C137.58 12 140.038 14.4576 140.038 17.5296V54.3939C140.038 57.3977 137.58 59.8553 134.577 59.8553H130.958L132.665 66.2042H119.899L118.192 59.8553H97.5757C94.572 59.8553 92.1826 57.3977 92.1826 54.3939V17.5296Z" fill="white"/>
</g>
</svg>
