
<svg xmlns="http://www.w3.org/2000/svg" width="60" height="20" viewBox="0 0 645 177">
    <path fill="#ffffff" d="M444.24,171.81H499.75C512.85,150.61 527.64,131.37 544.65,113.24C561.39,131.37 575.33,150.61 588.44,171.81H644.5C625.26,142.52 604.34,114.63 579.23,87.02C604.06,60.52 625.26,33.19 644.5,4.46H589.56C575.89,25.66 561.11,43.51 544.65,61.08C527.91,43.51 513.13,25.66 499.75,4.46H444.24C463.21,34.03 484.69,60.52 509.79,87.02C484.69,114.63 463.21,143.36 444.24,171.81Z"/>
    <path fill="#ffffff" d="M335.19,176.27C357.78,176.27 377.3,167.9 392.37,149.77V171.81H436.15V4.46H392.37V26.5C377.3,8.37 357.78,0 335.19,0C289.45,0 251.52,39.33 251.52,88.14C251.52,136.95 289.45,176.27 335.19,176.27ZM292.8,88.14C292.8,60.8 314.83,38.77 342.16,38.77C369.49,38.77 391.53,60.8 391.53,88.14C391.53,115.47 369.49,137.5 342.16,137.5C314.83,137.5 292.8,115.47 292.8,88.14ZM304.23,88.14C304.23,109.33 321.24,126.35 342.16,126.35C363.08,126.35 380.1,109.33 380.1,88.14C380.1,66.94 363.08,49.93 342.16,49.93C321.24,49.93 304.23,66.94 304.23,88.14Z"/>
    <path fill="#ffffff" d="M0.5,171.81H46.52V67.78C66.6,51.88 75.81,46.86 83.34,46.86C92.26,46.86 98.12,52.43 98.12,66.38V171.81H144.14V67.5C164.22,51.88 173.15,46.86 180.96,46.86C189.88,46.86 195.74,52.43 195.74,66.38V171.81H241.76V50.2C241.76,12.55 220.28,0 199.64,0C182.07,0 164.22,7.25 140.79,25.1C133.26,6.42 116.81,0 102.02,0C84.45,0 66.6,7.81 43.73,25.38V4.46H0.5V171.81Z"/>
</svg>
