<?xml version="1.0" encoding="UTF-8"?>
<svg xmlns="http://www.w3.org/2000/svg" xmlns:xlink="http://www.w3.org/1999/xlink" width="141px" height="20px" viewBox="0 0 141 20" version="1.1">
<g id="surface1">
<path style=" stroke:none;fill-rule:nonzero;fill:rgb(22.352941%,0%,49.019608%);fill-opacity:1;" d="M 25.75 7.941406 L 25.75 15.882812 L 29.605469 15.882812 L 29.605469 12.859375 C 29.605469 11.203125 29.644531 9.65625 29.6875 9.40625 C 29.867188 8.507812 30.761719 7.96875 31.546875 8.289062 C 32.304688 8.605469 32.359375 8.894531 32.359375 12.570312 L 32.359375 15.882812 L 36.226562 15.882812 L 36.1875 11.628906 C 36.144531 7.664062 36.132812 7.347656 35.855469 6.769531 C 35.222656 5.402344 34.066406 4.667969 32.511719 4.683594 C 31.449219 4.683594 31.078125 4.804688 30.210938 5.402344 L 29.605469 5.816406 L 29.605469 0 L 25.75 0 Z M 25.75 7.941406 "/>
<path style=" stroke:none;fill-rule:nonzero;fill:rgb(22.352941%,0%,49.019608%);fill-opacity:1;" d="M 67.085938 0.234375 C 66.976562 0.429688 63.410156 9.003906 63.105469 9.765625 C 63.050781 9.902344 63.558594 9.945312 65.363281 9.945312 L 67.675781 9.945312 L 69.632812 5.207031 C 70.707031 2.609375 71.628906 0.371094 71.671875 0.234375 C 71.765625 0.015625 71.601562 0 69.480469 0 C 67.457031 0 67.195312 0.0273438 67.085938 0.234375 Z M 67.085938 0.234375 "/>
<path style=" stroke:none;fill-rule:nonzero;fill:rgb(48.627451%,12.156863%,98.823529%);fill-opacity:1;" d="M 81.308594 0.195312 C 80.800781 0.414062 80.167969 1.132812 80.054688 1.601562 C 79.835938 2.484375 80.332031 3.523438 81.15625 3.921875 C 82.136719 4.378906 83.210938 4.089844 83.882812 3.164062 C 84.214844 2.722656 84.242188 1.710938 83.9375 1.132812 C 83.484375 0.25 82.191406 -0.222656 81.308594 0.195312 Z M 81.308594 0.195312 "/>
<path style=" stroke:none;fill-rule:nonzero;fill:rgb(48.627451%,12.156863%,98.823529%);fill-opacity:1;" d="M 75.375 0.386719 C 73.789062 0.953125 72.800781 2.304688 72.605469 4.210938 L 72.496094 5.179688 L 71.847656 5.222656 L 71.1875 5.261719 L 71.1875 6.710938 C 71.1875 7.761719 71.230469 8.148438 71.367188 8.164062 C 71.449219 8.175781 71.753906 8.191406 72.015625 8.203125 L 72.496094 8.21875 L 72.566406 11.878906 L 72.632812 15.539062 L 76.214844 15.539062 L 76.253906 12.03125 C 76.269531 9.722656 76.339844 8.453125 76.433594 8.328125 C 76.542969 8.203125 76.957031 8.148438 77.742188 8.148438 L 78.898438 8.148438 L 78.898438 5.261719 L 77.632812 5.222656 L 76.351562 5.179688 L 76.367188 4.640625 C 76.378906 4.269531 76.488281 4.003906 76.75 3.742188 C 77.082031 3.425781 77.21875 3.382812 78.074219 3.398438 L 79.039062 3.410156 L 79.039062 1.988281 C 79.039062 0.871094 78.996094 0.550781 78.816406 0.402344 C 78.445312 0.0976562 76.214844 0.0820312 75.375 0.386719 Z M 75.375 0.386719 "/>
<path style=" stroke:none;fill-rule:nonzero;fill:rgb(22.352941%,0%,49.019608%);fill-opacity:1;" d="M 16.894531 4.695312 C 14.128906 5.179688 12.160156 8.246094 12.625 11.324219 C 13.039062 13.992188 14.941406 15.910156 17.320312 16.117188 C 18.453125 16.214844 19.179688 16.023438 20.089844 15.402344 L 20.792969 14.929688 L 20.792969 15.882812 L 24.511719 15.882812 L 24.480469 10.386719 L 24.441406 4.902344 L 22.625 4.863281 L 20.792969 4.820312 L 20.792969 5.816406 L 20.351562 5.46875 C 19.414062 4.765625 18.132812 4.476562 16.894531 4.695312 Z M 19.785156 8.507812 C 20.710938 9.199219 21 10.195312 20.585938 11.269531 C 20.007812 12.789062 17.832031 13.09375 16.8125 11.796875 C 15.945312 10.691406 16.277344 9.074219 17.488281 8.398438 C 18.105469 8.050781 19.261719 8.121094 19.785156 8.507812 Z M 19.785156 8.507812 "/>
<path style=" stroke:none;fill-rule:nonzero;fill:rgb(22.352941%,0%,49.019608%);fill-opacity:1;" d="M 41.929688 4.695312 C 37.988281 5.304688 35.882812 9.585938 37.757812 13.148438 C 39.917969 17.238281 46.25 17.085938 48.234375 12.886719 C 48.648438 12.003906 48.675781 11.851562 48.675781 10.429688 C 48.660156 9.171875 48.605469 8.769531 48.359375 8.121094 C 47.988281 7.195312 46.914062 5.9375 46.074219 5.46875 C 44.902344 4.792969 43.25 4.488281 41.929688 4.695312 Z M 43.925781 8.453125 C 45.136719 9.074219 45.496094 10.609375 44.695312 11.671875 C 44.160156 12.375 43.621094 12.609375 42.714844 12.542969 C 42.039062 12.484375 41.886719 12.402344 41.433594 11.917969 C 40.605469 11.023438 40.539062 9.835938 41.265625 8.964844 C 41.984375 8.121094 42.917969 7.941406 43.925781 8.453125 Z M 43.925781 8.453125 "/>
<path style=" stroke:none;fill-rule:nonzero;fill:rgb(22.352941%,0%,49.019608%);fill-opacity:1;" d="M 54.222656 4.710938 C 51.292969 5.152344 49.210938 7.859375 49.472656 10.910156 C 49.585938 12.25 50.023438 13.273438 50.878906 14.199219 C 52.738281 16.230469 55.65625 16.726562 58.148438 15.457031 C 60.875 14.0625 61.933594 10.550781 60.503906 7.664062 C 59.429688 5.511719 56.867188 4.308594 54.222656 4.710938 Z M 56.261719 8.4375 C 57.789062 9.171875 57.902344 11.285156 56.457031 12.25 C 55.601562 12.84375 54.15625 12.570312 53.550781 11.726562 C 52.984375 10.925781 53.039062 9.710938 53.660156 8.964844 C 54.363281 8.136719 55.269531 7.957031 56.261719 8.4375 Z M 56.261719 8.4375 "/>
<path style=" stroke:none;fill-rule:nonzero;fill:rgb(22.352941%,0%,49.019608%);fill-opacity:1;" d="M 0.125 5.136719 C 0.191406 5.316406 1.253906 7.804688 2.464844 10.675781 C 3.691406 13.550781 4.683594 15.925781 4.683594 15.96875 C 4.683594 16.007812 4.308594 16.90625 3.855469 17.984375 C 3.402344 19.046875 3.03125 19.945312 3.03125 19.972656 C 3.03125 20.015625 3.964844 20.015625 5.109375 20 L 7.175781 19.957031 L 10.273438 12.5 C 11.964844 8.398438 13.355469 5 13.355469 4.929688 C 13.355469 4.875 12.433594 4.835938 11.320312 4.835938 L 9.28125 4.835938 L 8.070312 7.941406 C 7.394531 9.65625 6.800781 11.050781 6.761719 11.050781 C 6.71875 11.050781 6.128906 9.65625 5.464844 7.941406 L 4.253906 4.835938 L 0 4.835938 Z M 0.125 5.136719 "/>
<path style=" stroke:none;fill-rule:nonzero;fill:rgb(48.627451%,12.156863%,98.823529%);fill-opacity:1;" d="M 91.265625 5.027344 C 90.90625 5.125 90.34375 5.429688 89.996094 5.71875 L 89.363281 6.230469 L 89.363281 5.25 L 85.648438 5.25 L 85.675781 10.386719 L 85.714844 15.539062 L 89.296875 15.539062 L 89.363281 12.402344 C 89.433594 9.503906 89.460938 9.242188 89.722656 8.882812 C 90.273438 8.136719 91.292969 8.164062 91.800781 8.921875 C 92.023438 9.253906 92.035156 9.613281 92.007812 12.292969 C 91.964844 14.765625 91.996094 15.316406 92.160156 15.457031 C 92.296875 15.566406 92.890625 15.609375 94.058594 15.582031 L 95.765625 15.539062 L 95.808594 12.15625 C 95.863281 7.664062 95.65625 6.628906 94.527344 5.691406 C 93.714844 5.027344 92.3125 4.738281 91.265625 5.027344 Z M 91.265625 5.027344 "/>
<path style=" stroke:none;fill-rule:nonzero;fill:rgb(48.627451%,12.156863%,98.823529%);fill-opacity:1;" d="M 100.792969 5.015625 C 99.25 5.359375 98.191406 6.257812 97.433594 7.871094 C 97.035156 8.714844 97.007812 8.867188 97.007812 10.359375 C 97.019531 12.445312 97.308594 13.246094 98.507812 14.449219 C 99.5 15.441406 100.339844 15.789062 101.757812 15.773438 C 102.75 15.773438 103.878906 15.386719 104.316406 14.902344 C 104.648438 14.53125 104.757812 14.570312 104.8125 15.097656 L 104.855469 15.539062 L 108.433594 15.539062 L 108.476562 10.386719 L 108.503906 5.25 L 104.785156 5.25 L 104.785156 6.214844 L 104.167969 5.746094 C 103.175781 4.984375 102.046875 4.738281 100.792969 5.015625 Z M 103.824219 8.589844 C 104.550781 9.101562 104.839844 9.585938 104.839844 10.332031 C 104.839844 12.265625 102.75 13.164062 101.273438 11.863281 C 100.160156 10.871094 100.421875 9.226562 101.824219 8.453125 C 102.308594 8.175781 103.328125 8.257812 103.824219 8.589844 Z M 103.824219 8.589844 "/>
<path style=" stroke:none;fill-rule:nonzero;fill:rgb(48.627451%,12.156863%,98.823529%);fill-opacity:1;" d="M 115.871094 4.957031 C 115.277344 5.109375 114.824219 5.359375 114.328125 5.84375 L 113.875 6.269531 L 113.875 5.25 L 110.15625 5.25 L 110.15625 15.621094 L 111.988281 15.582031 L 113.804688 15.539062 L 113.875 12.320312 L 113.941406 9.089844 L 114.410156 8.675781 C 114.796875 8.328125 114.949219 8.273438 115.359375 8.34375 C 115.636719 8.382812 115.980469 8.550781 116.132812 8.703125 C 116.40625 8.964844 116.421875 9.183594 116.492188 12.265625 L 116.558594 15.539062 L 118.375 15.582031 L 120.195312 15.621094 L 120.289062 15.261719 C 120.332031 15.070312 120.347656 13.34375 120.304688 11.421875 C 120.234375 7.636719 120.140625 7.042969 119.4375 6.117188 C 118.804688 5.277344 116.972656 4.683594 115.871094 4.957031 Z M 115.871094 4.957031 "/>
<path style=" stroke:none;fill-rule:nonzero;fill:rgb(48.627451%,12.156863%,98.823529%);fill-opacity:1;" d="M 125.867188 4.984375 C 123.390625 5.414062 121.847656 7.085938 121.417969 9.765625 C 121.171875 11.355469 121.667969 12.859375 122.851562 14.15625 C 123.761719 15.164062 124.765625 15.636719 126.144531 15.71875 C 127.246094 15.789062 128.953125 15.550781 129.253906 15.304688 C 129.460938 15.136719 129.515625 12.015625 129.308594 12.015625 C 129.242188 12.015625 128.953125 12.113281 128.664062 12.238281 C 127.960938 12.527344 126.679688 12.445312 126.171875 12.070312 C 125.496094 11.5625 125.234375 11.078125 125.234375 10.359375 C 125.234375 9.640625 125.496094 9.15625 126.171875 8.644531 C 126.679688 8.273438 127.960938 8.191406 128.664062 8.480469 C 128.953125 8.605469 129.242188 8.703125 129.308594 8.703125 C 129.515625 8.703125 129.460938 5.582031 129.269531 5.429688 C 128.71875 5 127.039062 4.777344 125.867188 4.984375 Z M 125.867188 4.984375 "/>
<path style=" stroke:none;fill-rule:nonzero;fill:rgb(48.627451%,12.156863%,98.823529%);fill-opacity:1;" d="M 134.253906 5.082031 C 132.132812 5.648438 130.851562 6.90625 130.328125 8.9375 C 129.640625 11.574219 130.726562 14.183594 132.984375 15.289062 C 133.730469 15.664062 133.867188 15.675781 135.699219 15.675781 C 137.558594 15.675781 137.652344 15.664062 138.453125 15.277344 C 139.277344 14.863281 140.449219 13.796875 140.449219 13.46875 C 140.449219 13.316406 137.804688 12.15625 137.476562 12.15625 C 137.433594 12.15625 137.199219 12.304688 136.964844 12.484375 C 136.386719 12.914062 135.78125 13.039062 135.105469 12.84375 C 134.5 12.695312 133.839844 12.03125 133.839844 11.589844 C 133.839844 11.339844 134.003906 11.324219 137.390625 11.296875 L 140.929688 11.257812 L 140.972656 10.71875 C 141.042969 9.835938 140.738281 8.410156 140.269531 7.554688 C 139.167969 5.46875 136.636719 4.433594 134.253906 5.082031 Z M 136.800781 8.148438 C 137.226562 8.550781 137.363281 8.976562 137.128906 9.128906 C 137.019531 9.199219 136.261719 9.253906 135.449219 9.253906 C 133.855469 9.253906 133.660156 9.15625 133.976562 8.5625 C 134.433594 7.707031 136.070312 7.457031 136.800781 8.148438 Z M 136.800781 8.148438 "/>
<path style=" stroke:none;fill-rule:nonzero;fill:rgb(48.627451%,12.156863%,98.823529%);fill-opacity:1;" d="M 80.277344 10.429688 L 80.277344 15.621094 L 82.109375 15.582031 L 83.925781 15.539062 L 83.964844 10.386719 L 83.996094 5.25 L 80.277344 5.25 Z M 80.277344 10.429688 "/>
<path style=" stroke:none;fill-rule:nonzero;fill:rgb(22.352941%,0%,49.019608%);fill-opacity:1;" d="M 63.449219 11.035156 C 62.074219 11.492188 61.300781 13.175781 61.878906 14.542969 C 62.195312 15.332031 63.410156 16.160156 64.234375 16.160156 C 65.0625 16.160156 66.273438 15.332031 66.589844 14.542969 C 67.058594 13.425781 66.617188 11.949219 65.625 11.324219 C 65.089844 11.007812 64.015625 10.855469 63.449219 11.035156 Z M 63.449219 11.035156 "/>
</g>
</svg>
