<?xml version="1.0" standalone="no"?>
<!DOCTYPE svg PUBLIC "-//W3C//DTD SVG 20010904//EN"
 "http://www.w3.org/TR/2001/REC-SVG-20010904/DTD/svg10.dtd">
<svg version="1.0" xmlns="http://www.w3.org/2000/svg"
 width="1024.000000pt" height="145.000000pt" viewBox="0 0 1024.000000 145.000000"
 preserveAspectRatio="xMidYMid meet">

<g transform="translate(0.000000,145.000000) scale(0.100000,-0.100000)" stroke="none">
<path d="M1870 875 l0 -575 140 0 140 0 0 219 c0 120 3 232 6 250 13 65 78
104 135 81 55 -23 59 -44 59 -310 l0 -240 141 0 140 0 -3 308 c-3 287 -4 310
-24 352 -46 99 -130 152 -243 151 -77 0 -104 -9 -167 -52 l-44 -30 0 211 0
210 -140 0 -140 0 0 -575z" fill="#39007D"/>
<path d="M4872 1433 c-8 -14 -267 -635 -289 -690 -4 -10 33 -13 164 -13 l168
0 142 343 c78 188 145 350 148 360 7 16 -5 17 -159 17 -147 0 -166 -2 -174
-17z" fill="#39007D"/>
<path d="M5905 1436 c-37 -16 -83 -68 -91 -102 -16 -64 20 -139 80 -168 71
-33 149 -12 198 55 24 32 26 105 4 147 -33 64 -127 98 -191 68z" fill="#7C1FFC"/>
<path d="M5474 1422 c-115 -41 -187 -139 -201 -277 l-8 -70 -47 -3 -48 -3 0
-105 c0 -76 3 -104 13 -105 6 -1 28 -2 47 -3 l35 -1 5 -265 5 -265 130 0 130
0 3 254 c1 167 6 259 13 268 8 9 38 13 95 13 l84 0 0 105 0 104 -92 3 -93 3 1
39 c1 27 9 46 28 65 24 23 34 26 96 25 l70 -1 0 103 c0 81 -3 104 -16 115 -27
22 -189 23 -250 1z" fill="#7C1FFC"/>
<path d="M1227 1110 c-201 -35 -344 -257 -310 -480 30 -193 168 -332 341 -347
82 -7 135 7 201 52 l51 34 0 -35 0 -34 135 0 135 0 -2 398 -3 397 -132 3 -133
3 0 -36 0 -36 -32 25 c-68 51 -161 72 -251 56z m210 -276 c67 -50 88 -122 58
-200 -42 -110 -200 -132 -274 -38 -63 80 -39 197 49 246 45 25 129 20 167 -8z" fill="#39007D"/>
<path d="M3045 1110 c-286 -44 -439 -354 -303 -612 157 -296 617 -285 761 19
30 64 32 75 32 178 -1 91 -5 120 -23 167 -27 67 -105 158 -166 192 -85 49
-205 71 -301 56z m145 -272 c88 -45 114 -156 56 -233 -39 -51 -78 -68 -144
-63 -49 4 -60 10 -93 45 -60 65 -65 151 -12 214 52 61 120 74 193 37z" fill="#39007D"/>
<path d="M3938 1109 c-213 -32 -364 -228 -345 -449 8 -97 40 -171 102 -238
135 -147 347 -183 528 -91 198 101 275 355 171 564 -78 156 -264 243 -456 214z
m148 -270 c111 -53 119 -206 14 -276 -62 -43 -167 -23 -211 38 -41 58 -37 146
8 200 51 60 117 73 189 38z" fill="#39007D"/>
<path d="M9 1078 c5 -13 82 -193 170 -401 89 -208 161 -380 161 -383 0 -3 -27
-68 -60 -146 -33 -77 -60 -142 -60 -144 0 -3 68 -3 151 -2 l150 3 225 540
c123 297 224 543 224 548 0 4 -67 7 -148 7 l-148 0 -88 -225 c-49 -124 -92
-225 -95 -225 -3 0 -46 101 -94 225 l-88 225 -154 0 -155 0 9 -22z" fill="#39007D"/>
<path d="M6628 1086 c-26 -7 -67 -29 -92 -50 l-46 -37 0 35 0 36 -135 0 -135
0 2 -372 3 -373 130 0 130 0 5 227 c5 210 7 229 26 255 40 54 114 52 151 -3
16 -24 17 -50 15 -244 -3 -179 -1 -219 11 -229 10 -8 53 -11 138 -9 l124 3 3
245 c4 325 -11 400 -93 468 -59 48 -161 69 -237 48z" fill="#7C1FFC"/>
<path d="M7320 1087 c-112 -25 -189 -90 -244 -207 -29 -61 -31 -72 -31 -180 1
-151 22 -209 109 -296 72 -72 133 -97 236 -96 72 0 154 28 186 63 24 27 32 24
36 -14 l3 -32 130 0 130 0 3 373 2 372 -135 0 -135 0 0 -35 0 -35 -45 34 c-72
55 -154 73 -245 53z m220 -259 c53 -37 74 -72 74 -126 0 -140 -152 -205 -259
-111 -81 72 -62 191 40 247 35 20 109 14 145 -10z" fill="#7C1FFC"/>
<path d="M8415 1091 c-43 -11 -76 -29 -112 -64 l-33 -31 0 37 0 37 -135 0
-135 0 0 -375 0 -376 133 3 132 3 5 233 5 234 34 30 c28 25 39 29 69 24 20 -3
45 -15 56 -26 20 -19 21 -35 26 -258 l5 -237 132 -3 132 -3 7 26 c3 14 4 139
1 278 -5 274 -12 317 -63 384 -46 61 -179 104 -259 84z" fill="#7C1FFC"/>
<path d="M9141 1089 c-180 -31 -292 -152 -323 -346 -18 -115 18 -224 104 -318
66 -73 139 -107 239 -113 80 -5 204 12 226 30 15 12 19 238 4 238 -5 0 -26 -7
-47 -16 -51 -21 -144 -15 -181 12 -49 37 -68 72 -68 124 0 52 19 87 68 124 37
27 130 33 181 12 21 -9 42 -16 47 -16 15 0 11 226 -3 237 -40 31 -162 47 -247
32z" fill="#7C1FFC"/>
<path d="M9750 1082 c-154 -41 -247 -132 -285 -279 -50 -191 29 -380 193 -460
54 -27 64 -28 197 -28 135 0 142 1 200 29 60 30 145 107 145 131 0 11 -192 95
-216 95 -3 0 -20 -11 -37 -24 -42 -31 -86 -40 -135 -26 -44 11 -92 59 -92 91
0 18 12 19 258 21 l257 3 3 39 c5 64 -17 167 -51 229 -80 151 -264 226 -437
179z m185 -222 c31 -29 41 -60 24 -71 -8 -5 -63 -9 -122 -9 -116 0 -130 7
-107 50 33 62 152 80 205 30z" fill="#7C1FFC"/>
<path d="M5830 695 l0 -376 133 3 132 3 3 373 2 372 -135 0 -135 0 0 -375z" fill="#7C1FFC"/>
<path d="M4608 651 c-100 -33 -156 -155 -114 -254 23 -57 111 -117 171 -117
60 0 148 60 171 117 34 81 2 188 -70 233 -39 23 -117 34 -158 21z" fill="#39007D"/>
</g>
</svg>
